<svg width="430" height="151" viewBox="0 0 430 151" fill="none" xmlns="http://www.w3.org/2000/svg">
<path fill-rule="evenodd" clip-rule="evenodd" d="M430 0H0V121.75V122H0.00769098C0.994784 138.039 96.872 151 215 151C333.128 151 429.005 138.039 429.992 122H430V121.75V0Z" fill="url(#paint0_linear_291_730)"/>
<path d="M124.024 60.3057V49.3594H126.71V60.3057C126.71 61.3441 126.488 62.2285 126.044 62.959C125.6 63.6895 124.995 64.248 124.229 64.6348C123.462 65.0215 122.592 65.2148 121.618 65.2148C120.623 65.2148 119.738 65.0465 118.965 64.71C118.199 64.3734 117.597 63.8577 117.16 63.1631C116.723 62.4684 116.505 61.5876 116.505 60.5205H119.212C119.212 61.1364 119.309 61.6341 119.502 62.0137C119.702 62.3861 119.982 62.6582 120.34 62.8301C120.705 62.9948 121.131 63.0771 121.618 63.0771C122.084 63.0771 122.495 62.9733 122.854 62.7656C123.219 62.5508 123.505 62.2393 123.713 61.8311C123.921 61.4157 124.024 60.9072 124.024 60.3057ZM136.55 62.2607V53.377H139.149V65H136.7L136.55 62.2607ZM136.915 59.8438L137.785 59.8223C137.785 60.6029 137.699 61.3226 137.527 61.9814C137.355 62.6331 137.09 63.2025 136.732 63.6895C136.374 64.1693 135.916 64.5452 135.357 64.8174C134.799 65.0824 134.129 65.2148 133.349 65.2148C132.783 65.2148 132.264 65.1325 131.791 64.9678C131.318 64.8031 130.91 64.5488 130.566 64.2051C130.23 63.8613 129.968 63.4137 129.782 62.8623C129.596 62.3109 129.503 61.652 129.503 60.8857V53.377H132.092V60.9072C132.092 61.3298 132.142 61.6842 132.242 61.9707C132.342 62.25 132.479 62.4756 132.65 62.6475C132.822 62.8193 133.023 62.9411 133.252 63.0127C133.481 63.0843 133.725 63.1201 133.982 63.1201C134.72 63.1201 135.3 62.9769 135.723 62.6904C136.152 62.3968 136.457 62.0029 136.636 61.5088C136.822 61.0146 136.915 60.4596 136.915 59.8438ZM144.574 48.5V65H141.975V48.5H144.574ZM150.783 63.7324L153.941 53.377H156.713L152.051 66.7725C151.943 67.0589 151.804 67.3704 151.632 67.707C151.46 68.0436 151.234 68.3623 150.955 68.6631C150.683 68.971 150.343 69.2181 149.935 69.4043C149.526 69.5977 149.032 69.6943 148.452 69.6943C148.223 69.6943 148.001 69.6729 147.786 69.6299C147.578 69.5941 147.382 69.5547 147.195 69.5117L147.185 67.5352C147.256 67.5423 147.342 67.5495 147.442 67.5566C147.55 67.5638 147.636 67.5674 147.7 67.5674C148.13 67.5674 148.488 67.5137 148.774 67.4062C149.061 67.306 149.294 67.1413 149.473 66.9121C149.659 66.6829 149.816 66.375 149.945 65.9883L150.783 63.7324ZM149 53.377L151.761 62.0781L152.223 64.8066L150.429 65.2686L146.207 53.377H149ZM170.474 49.3594L164.383 66.3428H162.353L168.454 49.3594H170.474ZM184.095 51.4434L179.422 65H176.597L182.483 49.3594H184.288L184.095 51.4434ZM188.005 65L183.321 51.4434L183.117 49.3594H184.933L190.841 65H188.005ZM187.779 59.1992V61.3369H179.271V59.1992H187.779ZM199.198 62.2607V53.377H201.798V65H199.349L199.198 62.2607ZM199.563 59.8438L200.434 59.8223C200.434 60.6029 200.348 61.3226 200.176 61.9814C200.004 62.6331 199.739 63.2025 199.381 63.6895C199.023 64.1693 198.564 64.5452 198.006 64.8174C197.447 65.0824 196.778 65.2148 195.997 65.2148C195.431 65.2148 194.912 65.1325 194.439 64.9678C193.967 64.8031 193.559 64.5488 193.215 64.2051C192.878 63.8613 192.617 63.4137 192.431 62.8623C192.244 62.3109 192.151 61.652 192.151 60.8857V53.377H194.74V60.9072C194.74 61.3298 194.79 61.6842 194.891 61.9707C194.991 62.25 195.127 62.4756 195.299 62.6475C195.471 62.8193 195.671 62.9411 195.9 63.0127C196.13 63.0843 196.373 63.1201 196.631 63.1201C197.368 63.1201 197.949 62.9769 198.371 62.6904C198.801 62.3968 199.105 62.0029 199.284 61.5088C199.47 61.0146 199.563 60.4596 199.563 59.8438ZM211.896 53.377H214.248V64.6777C214.248 65.7233 214.026 66.6113 213.582 67.3418C213.138 68.0723 212.519 68.6273 211.724 69.0068C210.929 69.3936 210.008 69.5869 208.963 69.5869C208.519 69.5869 208.025 69.5225 207.48 69.3936C206.943 69.2646 206.421 69.057 205.912 68.7705C205.411 68.4912 204.992 68.1224 204.655 67.6641L205.869 66.1387C206.285 66.6328 206.743 66.9945 207.244 67.2236C207.745 67.4528 208.272 67.5674 208.823 67.5674C209.418 67.5674 209.923 67.4564 210.338 67.2344C210.76 67.0195 211.086 66.7008 211.315 66.2783C211.545 65.8558 211.659 65.3402 211.659 64.7314V56.0088L211.896 53.377ZM204 59.3174V59.0918C204 58.2109 204.107 57.4089 204.322 56.6855C204.537 55.9551 204.845 55.3285 205.246 54.8057C205.647 54.2757 206.134 53.8711 206.707 53.5918C207.28 53.3053 207.928 53.1621 208.651 53.1621C209.403 53.1621 210.044 53.2982 210.574 53.5703C211.111 53.8424 211.559 54.2327 211.917 54.7412C212.275 55.2425 212.554 55.8441 212.755 56.5459C212.963 57.2406 213.117 58.014 213.217 58.8662V59.5859C213.124 60.4167 212.966 61.1758 212.744 61.8633C212.522 62.5508 212.229 63.1452 211.863 63.6465C211.498 64.1478 211.047 64.5345 210.51 64.8066C209.98 65.0788 209.353 65.2148 208.63 65.2148C207.921 65.2148 207.28 65.068 206.707 64.7744C206.141 64.4808 205.654 64.069 205.246 63.5391C204.845 63.0091 204.537 62.3861 204.322 61.6699C204.107 60.9466 204 60.1624 204 59.3174ZM206.589 59.0918V59.3174C206.589 59.8473 206.639 60.3415 206.739 60.7998C206.847 61.2581 207.008 61.6628 207.223 62.0137C207.445 62.3574 207.724 62.6296 208.061 62.8301C208.404 63.0234 208.809 63.1201 209.274 63.1201C209.883 63.1201 210.381 62.9912 210.768 62.7334C211.161 62.4756 211.462 62.1283 211.67 61.6914C211.885 61.2474 212.035 60.7533 212.121 60.209V58.2646C212.078 57.8421 211.989 57.4482 211.853 57.083C211.724 56.7178 211.548 56.3991 211.326 56.127C211.104 55.8477 210.825 55.6328 210.488 55.4824C210.152 55.3249 209.754 55.2461 209.296 55.2461C208.83 55.2461 208.426 55.3464 208.082 55.5469C207.738 55.7474 207.455 56.0231 207.233 56.374C207.019 56.7249 206.857 57.1331 206.75 57.5986C206.643 58.0641 206.589 58.5618 206.589 59.0918ZM223.927 62.2607V53.377H226.526V65H224.077L223.927 62.2607ZM224.292 59.8438L225.162 59.8223C225.162 60.6029 225.076 61.3226 224.904 61.9814C224.732 62.6331 224.467 63.2025 224.109 63.6895C223.751 64.1693 223.293 64.5452 222.734 64.8174C222.176 65.0824 221.506 65.2148 220.726 65.2148C220.16 65.2148 219.641 65.1325 219.168 64.9678C218.695 64.8031 218.287 64.5488 217.943 64.2051C217.607 63.8613 217.345 63.4137 217.159 62.8623C216.973 62.3109 216.88 61.652 216.88 60.8857V53.377H219.469V60.9072C219.469 61.3298 219.519 61.6842 219.619 61.9707C219.719 62.25 219.855 62.4756 220.027 62.6475C220.199 62.8193 220.4 62.9411 220.629 63.0127C220.858 63.0843 221.102 63.1201 221.359 63.1201C222.097 63.1201 222.677 62.9769 223.1 62.6904C223.529 62.3968 223.834 62.0029 224.013 61.5088C224.199 61.0146 224.292 60.4596 224.292 59.8438ZM234.304 65.2148C233.444 65.2148 232.667 65.0752 231.973 64.7959C231.285 64.5094 230.698 64.112 230.211 63.6035C229.731 63.0951 229.362 62.4971 229.104 61.8096C228.847 61.1221 228.718 60.3809 228.718 59.5859V59.1562C228.718 58.2467 228.85 57.4232 229.115 56.6855C229.38 55.9479 229.749 55.3177 230.222 54.7949C230.694 54.265 231.253 53.8604 231.897 53.5811C232.542 53.3018 233.24 53.1621 233.992 53.1621C234.823 53.1621 235.55 53.3018 236.173 53.5811C236.796 53.8604 237.312 54.2542 237.72 54.7627C238.135 55.264 238.443 55.862 238.644 56.5566C238.851 57.2513 238.955 58.0176 238.955 58.8555V59.9619H229.975V58.1035H236.398V57.8994C236.384 57.4339 236.291 56.9971 236.119 56.5889C235.954 56.1807 235.7 55.8512 235.356 55.6006C235.013 55.3499 234.554 55.2246 233.981 55.2246C233.552 55.2246 233.169 55.3177 232.832 55.5039C232.503 55.6829 232.227 55.9443 232.005 56.2881C231.783 56.6318 231.611 57.0472 231.489 57.5342C231.375 58.014 231.317 58.5547 231.317 59.1562V59.5859C231.317 60.0944 231.385 60.5671 231.521 61.0039C231.665 61.4336 231.872 61.8096 232.145 62.1318C232.417 62.4541 232.746 62.7083 233.133 62.8945C233.52 63.0736 233.96 63.1631 234.454 63.1631C235.077 63.1631 235.632 63.0378 236.119 62.7871C236.606 62.5365 237.029 62.182 237.387 61.7236L238.751 63.0449C238.5 63.4102 238.174 63.7611 237.773 64.0977C237.372 64.4271 236.882 64.6956 236.302 64.9033C235.729 65.111 235.063 65.2148 234.304 65.2148ZM247.495 61.8525C247.495 61.5947 247.431 61.362 247.302 61.1543C247.173 60.9395 246.926 60.7461 246.561 60.5742C246.202 60.4023 245.673 60.2448 244.971 60.1016C244.355 59.9655 243.789 59.8044 243.273 59.6182C242.765 59.4248 242.328 59.1921 241.963 58.9199C241.598 58.6478 241.315 58.3255 241.114 57.9531C240.914 57.5807 240.813 57.151 240.813 56.6641C240.813 56.1914 240.917 55.7438 241.125 55.3213C241.333 54.8988 241.63 54.5264 242.017 54.2041C242.403 53.8818 242.872 53.6276 243.424 53.4414C243.982 53.2552 244.605 53.1621 245.293 53.1621C246.267 53.1621 247.101 53.3268 247.796 53.6562C248.498 53.9785 249.035 54.4189 249.407 54.9775C249.78 55.529 249.966 56.152 249.966 56.8467H247.377C247.377 56.5387 247.298 56.2523 247.141 55.9873C246.99 55.7152 246.761 55.4967 246.453 55.332C246.145 55.1602 245.758 55.0742 245.293 55.0742C244.849 55.0742 244.48 55.1458 244.187 55.2891C243.9 55.4251 243.685 55.6042 243.542 55.8262C243.406 56.0482 243.338 56.2917 243.338 56.5566C243.338 56.75 243.374 56.9255 243.445 57.083C243.524 57.2334 243.653 57.373 243.832 57.502C244.011 57.6237 244.255 57.7383 244.562 57.8457C244.878 57.9531 245.271 58.057 245.744 58.1572C246.632 58.3434 247.395 58.5833 248.032 58.877C248.677 59.1634 249.171 59.5358 249.515 59.9941C249.858 60.4453 250.03 61.0182 250.03 61.7129C250.03 62.2285 249.919 62.7012 249.697 63.1309C249.482 63.5534 249.167 63.9222 248.752 64.2373C248.337 64.5452 247.839 64.7852 247.259 64.957C246.686 65.1289 246.041 65.2148 245.325 65.2148C244.272 65.2148 243.381 65.0286 242.65 64.6562C241.92 64.2767 241.365 63.7933 240.985 63.2061C240.613 62.6117 240.427 61.9958 240.427 61.3584H242.93C242.958 61.8382 243.091 62.2214 243.327 62.5078C243.571 62.7871 243.871 62.9912 244.229 63.1201C244.595 63.2419 244.971 63.3027 245.357 63.3027C245.823 63.3027 246.213 63.2419 246.528 63.1201C246.843 62.9912 247.083 62.8193 247.248 62.6045C247.413 62.3825 247.495 62.1318 247.495 61.8525ZM257.625 53.377V55.2676H251.072V53.377H257.625ZM252.963 50.5303H255.552V61.7881C255.552 62.1462 255.602 62.4219 255.702 62.6152C255.81 62.8014 255.956 62.9268 256.143 62.9912C256.329 63.0557 256.547 63.0879 256.798 63.0879C256.977 63.0879 257.149 63.0771 257.313 63.0557C257.478 63.0342 257.611 63.0127 257.711 62.9912L257.722 64.9678C257.507 65.0322 257.256 65.0895 256.97 65.1396C256.69 65.1898 256.368 65.2148 256.003 65.2148C255.409 65.2148 254.882 65.111 254.424 64.9033C253.965 64.6885 253.607 64.3411 253.35 63.8613C253.092 63.3815 252.963 62.7441 252.963 61.9492V50.5303ZM275.436 62.9375V65H264.951V63.2275L270.043 57.6738C270.602 57.0436 271.042 56.4993 271.364 56.041C271.687 55.5827 271.912 55.1709 272.041 54.8057C272.177 54.4333 272.245 54.0716 272.245 53.7207C272.245 53.2266 272.152 52.7933 271.966 52.4209C271.787 52.0413 271.522 51.7441 271.171 51.5293C270.82 51.3073 270.394 51.1963 269.893 51.1963C269.312 51.1963 268.826 51.3216 268.432 51.5723C268.038 51.8229 267.741 52.1702 267.54 52.6143C267.34 53.0511 267.239 53.5524 267.239 54.1182H264.65C264.65 53.2087 264.858 52.3779 265.273 51.626C265.689 50.8669 266.29 50.2653 267.078 49.8213C267.866 49.3701 268.815 49.1445 269.925 49.1445C270.97 49.1445 271.858 49.32 272.589 49.6709C273.319 50.0218 273.874 50.5195 274.254 51.1641C274.641 51.8086 274.834 52.5713 274.834 53.4521C274.834 53.9391 274.755 54.4225 274.598 54.9023C274.44 55.3822 274.215 55.862 273.921 56.3418C273.634 56.8145 273.294 57.2907 272.9 57.7705C272.507 58.2432 272.073 58.723 271.601 59.21L268.217 62.9375H275.436ZM287.649 55.8691V58.4258C287.649 59.6504 287.528 60.696 287.284 61.5625C287.048 62.4219 286.704 63.1201 286.253 63.6572C285.802 64.1943 285.261 64.5882 284.631 64.8389C284.008 65.0895 283.31 65.2148 282.536 65.2148C281.92 65.2148 281.347 65.1361 280.817 64.9785C280.295 64.821 279.822 64.5739 279.399 64.2373C278.977 63.9007 278.615 63.4674 278.314 62.9375C278.021 62.4004 277.792 61.7594 277.627 61.0146C277.469 60.2699 277.391 59.4069 277.391 58.4258V55.8691C277.391 54.6374 277.512 53.599 277.756 52.7539C277.999 51.9017 278.347 51.2106 278.798 50.6807C279.249 50.1436 279.786 49.7533 280.409 49.5098C281.039 49.2663 281.741 49.1445 282.515 49.1445C283.138 49.1445 283.711 49.2233 284.233 49.3809C284.763 49.5312 285.236 49.7712 285.651 50.1006C286.074 50.43 286.432 50.8597 286.726 51.3896C287.026 51.9124 287.256 52.5462 287.413 53.291C287.571 54.0286 287.649 54.888 287.649 55.8691ZM285.061 58.791V55.4824C285.061 54.8594 285.025 54.3115 284.953 53.8389C284.882 53.359 284.774 52.9544 284.631 52.625C284.495 52.2884 284.323 52.0163 284.115 51.8086C283.908 51.5938 283.671 51.4398 283.406 51.3467C283.141 51.2464 282.844 51.1963 282.515 51.1963C282.114 51.1963 281.756 51.2751 281.44 51.4326C281.125 51.583 280.86 51.8265 280.646 52.1631C280.431 52.4997 280.266 52.9437 280.151 53.4951C280.044 54.0394 279.99 54.7018 279.99 55.4824V58.791C279.99 59.4212 280.026 59.9762 280.098 60.4561C280.169 60.9359 280.277 61.3477 280.42 61.6914C280.563 62.028 280.735 62.3073 280.936 62.5293C281.143 62.7441 281.38 62.9017 281.645 63.002C281.917 63.1022 282.214 63.1523 282.536 63.1523C282.944 63.1523 283.306 63.0736 283.621 62.916C283.936 62.7585 284.201 62.5078 284.416 62.1641C284.631 61.8132 284.792 61.3584 284.899 60.7998C285.007 60.2412 285.061 59.5716 285.061 58.791ZM300.443 62.9375V65H289.959V63.2275L295.051 57.6738C295.609 57.0436 296.05 56.4993 296.372 56.041C296.694 55.5827 296.92 55.1709 297.049 54.8057C297.185 54.4333 297.253 54.0716 297.253 53.7207C297.253 53.2266 297.16 52.7933 296.974 52.4209C296.795 52.0413 296.53 51.7441 296.179 51.5293C295.828 51.3073 295.402 51.1963 294.9 51.1963C294.32 51.1963 293.833 51.3216 293.439 51.5723C293.046 51.8229 292.748 52.1702 292.548 52.6143C292.347 53.0511 292.247 53.5524 292.247 54.1182H289.658C289.658 53.2087 289.866 52.3779 290.281 51.626C290.697 50.8669 291.298 50.2653 292.086 49.8213C292.874 49.3701 293.823 49.1445 294.933 49.1445C295.978 49.1445 296.866 49.32 297.597 49.6709C298.327 50.0218 298.882 50.5195 299.262 51.1641C299.648 51.8086 299.842 52.5713 299.842 53.4521C299.842 53.9391 299.763 54.4225 299.605 54.9023C299.448 55.3822 299.222 55.862 298.929 56.3418C298.642 56.8145 298.302 57.2907 297.908 57.7705C297.514 58.2432 297.081 58.723 296.608 59.21L293.225 62.9375H300.443ZM305.503 56.0088H307.05C307.651 56.0088 308.149 55.9049 308.543 55.6973C308.944 55.4896 309.241 55.2031 309.435 54.8379C309.628 54.4727 309.725 54.0537 309.725 53.5811C309.725 53.0869 309.635 52.6644 309.456 52.3135C309.284 51.9554 309.019 51.6797 308.661 51.4863C308.31 51.293 307.863 51.1963 307.318 51.1963C306.86 51.1963 306.445 51.2894 306.072 51.4756C305.707 51.6546 305.417 51.9124 305.202 52.249C304.987 52.5785 304.88 52.9723 304.88 53.4307H302.28C302.28 52.5999 302.499 51.8623 302.936 51.2178C303.372 50.5732 303.967 50.0684 304.719 49.7031C305.478 49.3307 306.33 49.1445 307.275 49.1445C308.285 49.1445 309.166 49.3128 309.918 49.6494C310.677 49.9788 311.268 50.473 311.69 51.1318C312.113 51.7907 312.324 52.6071 312.324 53.5811C312.324 54.0251 312.22 54.4762 312.013 54.9346C311.805 55.3929 311.497 55.8118 311.089 56.1914C310.681 56.5638 310.172 56.8682 309.563 57.1045C308.955 57.3337 308.249 57.4482 307.447 57.4482H305.503V56.0088ZM305.503 58.0283V56.6104H307.447C308.364 56.6104 309.145 56.7178 309.789 56.9326C310.441 57.1475 310.971 57.4447 311.379 57.8242C311.787 58.1966 312.084 58.6227 312.271 59.1025C312.464 59.5824 312.561 60.0908 312.561 60.6279C312.561 61.3584 312.428 62.0101 312.163 62.583C311.905 63.1488 311.536 63.6286 311.057 64.0225C310.577 64.4163 310.015 64.7135 309.37 64.9141C308.733 65.1146 308.038 65.2148 307.286 65.2148C306.613 65.2148 305.968 65.1217 305.353 64.9355C304.737 64.7493 304.185 64.4736 303.698 64.1084C303.211 63.736 302.825 63.2741 302.538 62.7227C302.259 62.1641 302.119 61.5195 302.119 60.7891H304.708C304.708 61.2546 304.815 61.6663 305.03 62.0244C305.252 62.3753 305.56 62.651 305.954 62.8516C306.355 63.0521 306.813 63.1523 307.329 63.1523C307.873 63.1523 308.342 63.0557 308.736 62.8623C309.13 62.6689 309.431 62.3825 309.639 62.0029C309.854 61.6234 309.961 61.165 309.961 60.6279C309.961 60.0192 309.843 59.5251 309.606 59.1455C309.37 58.766 309.034 58.4867 308.597 58.3076C308.16 58.1214 307.644 58.0283 307.05 58.0283H305.503Z" fill="white"/>
<path d="M24.2285 99.4062C24.2285 99.0742 24.1764 98.7812 24.0723 98.5273C23.9746 98.2669 23.7988 98.0326 23.5449 97.8242C23.2975 97.6159 22.9525 97.4173 22.5098 97.2285C22.0736 97.0397 21.5202 96.8477 20.8496 96.6523C20.1465 96.444 19.5117 96.2129 18.9453 95.959C18.3789 95.6986 17.8939 95.4023 17.4902 95.0703C17.0866 94.7383 16.7773 94.3574 16.5625 93.9277C16.3477 93.498 16.2402 93.0065 16.2402 92.4531C16.2402 91.8997 16.3542 91.3887 16.582 90.9199C16.8099 90.4512 17.1354 90.0443 17.5586 89.6992C17.9883 89.3477 18.4993 89.0742 19.0918 88.8789C19.6842 88.6836 20.3451 88.5859 21.0742 88.5859C22.1419 88.5859 23.0469 88.791 23.7891 89.2012C24.5378 89.6048 25.1074 90.1354 25.498 90.793C25.8887 91.444 26.084 92.1406 26.084 92.8828H24.209C24.209 92.349 24.0951 91.877 23.8672 91.4668C23.6393 91.0501 23.2943 90.7246 22.832 90.4902C22.3698 90.2493 21.7839 90.1289 21.0742 90.1289C20.4036 90.1289 19.8503 90.2298 19.4141 90.4316C18.9779 90.6335 18.6523 90.9069 18.4375 91.252C18.2292 91.597 18.125 91.9909 18.125 92.4336C18.125 92.7331 18.1868 93.0065 18.3105 93.2539C18.4408 93.4948 18.6393 93.7194 18.9062 93.9277C19.1797 94.1361 19.5247 94.3281 19.9414 94.5039C20.3646 94.6797 20.8691 94.849 21.4551 95.0117C22.2624 95.2396 22.959 95.4935 23.5449 95.7734C24.1309 96.0534 24.6126 96.3691 24.9902 96.7207C25.3743 97.0658 25.6576 97.4596 25.8398 97.9023C26.0286 98.3385 26.123 98.8333 26.123 99.3867C26.123 99.9661 26.0059 100.49 25.7715 100.959C25.5371 101.428 25.2018 101.828 24.7656 102.16C24.3294 102.492 23.8053 102.749 23.1934 102.932C22.5879 103.107 21.9108 103.195 21.1621 103.195C20.5046 103.195 19.8568 103.104 19.2188 102.922C18.5872 102.74 18.0111 102.466 17.4902 102.102C16.9759 101.737 16.5625 101.288 16.25 100.754C15.944 100.214 15.791 99.5885 15.791 98.8789H17.666C17.666 99.3672 17.7604 99.7871 17.9492 100.139C18.138 100.484 18.3952 100.77 18.7207 100.998C19.0527 101.226 19.4271 101.395 19.8438 101.506C20.2669 101.61 20.7064 101.662 21.1621 101.662C21.8197 101.662 22.3763 101.571 22.832 101.389C23.2878 101.206 23.6328 100.946 23.8672 100.607C24.1081 100.269 24.2285 99.8685 24.2285 99.4062ZM34.7168 100.559V92.4336H36.5332V103H34.8047L34.7168 100.559ZM35.0586 98.332L35.8105 98.3125C35.8105 99.0156 35.7357 99.6667 35.5859 100.266C35.4427 100.858 35.2083 101.372 34.8828 101.809C34.5573 102.245 34.1309 102.587 33.6035 102.834C33.0762 103.075 32.4349 103.195 31.6797 103.195C31.1654 103.195 30.6934 103.12 30.2637 102.971C29.8405 102.821 29.4759 102.59 29.1699 102.277C28.8639 101.965 28.6263 101.558 28.457 101.057C28.2943 100.555 28.2129 99.9531 28.2129 99.25V92.4336H30.0195V99.2695C30.0195 99.7448 30.0716 100.139 30.1758 100.451C30.2865 100.757 30.4329 101.001 30.6152 101.184C30.804 101.359 31.0124 101.483 31.2402 101.555C31.4746 101.626 31.7155 101.662 31.9629 101.662C32.7311 101.662 33.3398 101.516 33.7891 101.223C34.2383 100.923 34.5605 100.523 34.7559 100.021C34.9577 99.5137 35.0586 98.9505 35.0586 98.332ZM41.0938 94.6895V103H39.2871V92.4336H40.9961L41.0938 94.6895ZM40.6641 97.3164L39.9121 97.2871C39.9186 96.5645 40.026 95.8971 40.2344 95.2852C40.4427 94.6667 40.7357 94.1296 41.1133 93.6738C41.4909 93.2181 41.9401 92.8665 42.4609 92.6191C42.9883 92.3652 43.571 92.2383 44.209 92.2383C44.7298 92.2383 45.1986 92.3099 45.6152 92.4531C46.0319 92.5898 46.3867 92.8112 46.6797 93.1172C46.9792 93.4232 47.207 93.8203 47.3633 94.3086C47.5195 94.7904 47.5977 95.3796 47.5977 96.0762V103H45.7812V96.0566C45.7812 95.5033 45.6999 95.0605 45.5371 94.7285C45.3743 94.39 45.1367 94.1458 44.8242 93.9961C44.5117 93.8398 44.1276 93.7617 43.6719 93.7617C43.2227 93.7617 42.8125 93.8561 42.4414 94.0449C42.0768 94.2337 41.7611 94.4941 41.4941 94.8262C41.2337 95.1582 41.0286 95.5391 40.8789 95.9688C40.7357 96.3919 40.6641 96.8411 40.6641 97.3164Z" fill="white"/>
<path d="M78.2461 88.7812H80.0723L84.7305 100.373L89.3789 88.7812H91.2148L85.4336 103H84.0078L78.2461 88.7812ZM77.6504 88.7812H79.2617L79.5254 97.4531V103H77.6504V88.7812ZM90.1895 88.7812H91.8008V103H89.9258V97.4531L90.1895 88.7812ZM94.3594 97.834V97.6094C94.3594 96.8477 94.4701 96.1413 94.6914 95.4902C94.9128 94.8327 95.2318 94.263 95.6484 93.7812C96.0651 93.293 96.5697 92.9154 97.1621 92.6484C97.7546 92.375 98.4186 92.2383 99.1543 92.2383C99.8965 92.2383 100.564 92.375 101.156 92.6484C101.755 92.9154 102.263 93.293 102.68 93.7812C103.103 94.263 103.425 94.8327 103.646 95.4902C103.868 96.1413 103.979 96.8477 103.979 97.6094V97.834C103.979 98.5957 103.868 99.3021 103.646 99.9531C103.425 100.604 103.103 101.174 102.68 101.662C102.263 102.144 101.758 102.521 101.166 102.795C100.58 103.062 99.916 103.195 99.1738 103.195C98.4316 103.195 97.7643 103.062 97.1719 102.795C96.5794 102.521 96.0716 102.144 95.6484 101.662C95.2318 101.174 94.9128 100.604 94.6914 99.9531C94.4701 99.3021 94.3594 98.5957 94.3594 97.834ZM96.166 97.6094V97.834C96.166 98.3613 96.2279 98.8594 96.3516 99.3281C96.4753 99.7904 96.6608 100.201 96.9082 100.559C97.1621 100.917 97.4779 101.2 97.8555 101.408C98.2331 101.61 98.6725 101.711 99.1738 101.711C99.6686 101.711 100.102 101.61 100.473 101.408C100.85 101.2 101.163 100.917 101.41 100.559C101.658 100.201 101.843 99.7904 101.967 99.3281C102.097 98.8594 102.162 98.3613 102.162 97.834V97.6094C102.162 97.0885 102.097 96.597 101.967 96.1348C101.843 95.666 101.654 95.2526 101.4 94.8945C101.153 94.5299 100.84 94.2435 100.463 94.0352C100.092 93.8268 99.6556 93.7227 99.1543 93.7227C98.6595 93.7227 98.2233 93.8268 97.8457 94.0352C97.4746 94.2435 97.1621 94.5299 96.9082 94.8945C96.6608 95.2526 96.4753 95.666 96.3516 96.1348C96.2279 96.597 96.166 97.0885 96.166 97.6094ZM108.051 94.6895V103H106.244V92.4336H107.953L108.051 94.6895ZM107.621 97.3164L106.869 97.2871C106.876 96.5645 106.983 95.8971 107.191 95.2852C107.4 94.6667 107.693 94.1296 108.07 93.6738C108.448 93.2181 108.897 92.8665 109.418 92.6191C109.945 92.3652 110.528 92.2383 111.166 92.2383C111.687 92.2383 112.156 92.3099 112.572 92.4531C112.989 92.5898 113.344 92.8112 113.637 93.1172C113.936 93.4232 114.164 93.8203 114.32 94.3086C114.477 94.7904 114.555 95.3796 114.555 96.0762V103H112.738V96.0566C112.738 95.5033 112.657 95.0605 112.494 94.7285C112.331 94.39 112.094 94.1458 111.781 93.9961C111.469 93.8398 111.085 93.7617 110.629 93.7617C110.18 93.7617 109.77 93.8561 109.398 94.0449C109.034 94.2337 108.718 94.4941 108.451 94.8262C108.191 95.1582 107.986 95.5391 107.836 95.9688C107.693 96.3919 107.621 96.8411 107.621 97.3164Z" fill="white"/>
<path d="M149.904 88.7812V103H148.049V88.7812H149.904ZM154.475 88.7812V90.3242H143.488V88.7812H154.475ZM161.838 100.559V92.4336H163.654V103H161.926L161.838 100.559ZM162.18 98.332L162.932 98.3125C162.932 99.0156 162.857 99.6667 162.707 100.266C162.564 100.858 162.329 101.372 162.004 101.809C161.678 102.245 161.252 102.587 160.725 102.834C160.197 103.075 159.556 103.195 158.801 103.195C158.286 103.195 157.814 103.12 157.385 102.971C156.962 102.821 156.597 102.59 156.291 102.277C155.985 101.965 155.747 101.558 155.578 101.057C155.415 100.555 155.334 99.9531 155.334 99.25V92.4336H157.141V99.2695C157.141 99.7448 157.193 100.139 157.297 100.451C157.408 100.757 157.554 101.001 157.736 101.184C157.925 101.359 158.133 101.483 158.361 101.555C158.596 101.626 158.837 101.662 159.084 101.662C159.852 101.662 160.461 101.516 160.91 101.223C161.359 100.923 161.682 100.523 161.877 100.021C162.079 99.5137 162.18 98.9505 162.18 98.332ZM170.793 103.195C170.057 103.195 169.39 103.072 168.791 102.824C168.199 102.57 167.688 102.215 167.258 101.76C166.835 101.304 166.509 100.764 166.281 100.139C166.053 99.5137 165.939 98.8301 165.939 98.0879V97.6777C165.939 96.8184 166.066 96.0534 166.32 95.3828C166.574 94.7057 166.919 94.1328 167.355 93.6641C167.792 93.1953 168.286 92.8405 168.84 92.5996C169.393 92.3587 169.966 92.2383 170.559 92.2383C171.314 92.2383 171.965 92.3685 172.512 92.6289C173.065 92.8893 173.518 93.2539 173.869 93.7227C174.221 94.1849 174.481 94.7318 174.65 95.3633C174.82 95.9883 174.904 96.6719 174.904 97.4141V98.2246H167.014V96.75H173.098V96.6133C173.072 96.1445 172.974 95.6888 172.805 95.2461C172.642 94.8034 172.382 94.4388 172.023 94.1523C171.665 93.8659 171.177 93.7227 170.559 93.7227C170.148 93.7227 169.771 93.8105 169.426 93.9863C169.081 94.1556 168.785 94.4095 168.537 94.748C168.29 95.0866 168.098 95.5 167.961 95.9883C167.824 96.4766 167.756 97.0397 167.756 97.6777V98.0879C167.756 98.5892 167.824 99.0612 167.961 99.5039C168.104 99.9401 168.309 100.324 168.576 100.656C168.85 100.988 169.178 101.249 169.562 101.438C169.953 101.626 170.396 101.721 170.891 101.721C171.529 101.721 172.069 101.59 172.512 101.33C172.954 101.07 173.342 100.721 173.674 100.285L174.768 101.154C174.54 101.499 174.25 101.828 173.898 102.141C173.547 102.453 173.114 102.707 172.6 102.902C172.092 103.098 171.49 103.195 170.793 103.195Z" fill="white"/>
<path d="M208.391 98.7031L211.213 88.7812H212.58L211.789 92.6387L208.752 103H207.395L208.391 98.7031ZM205.471 88.7812L207.717 98.5078L208.391 103H207.043L203.596 88.7812H205.471ZM216.232 98.498L218.43 88.7812H220.314L216.877 103H215.529L216.232 98.498ZM212.785 88.7812L215.529 98.7031L216.525 103H215.168L212.238 92.6387L211.438 88.7812H212.785ZM226.203 103.195C225.467 103.195 224.8 103.072 224.201 102.824C223.609 102.57 223.098 102.215 222.668 101.76C222.245 101.304 221.919 100.764 221.691 100.139C221.464 99.5137 221.35 98.8301 221.35 98.0879V97.6777C221.35 96.8184 221.477 96.0534 221.73 95.3828C221.984 94.7057 222.329 94.1328 222.766 93.6641C223.202 93.1953 223.697 92.8405 224.25 92.5996C224.803 92.3587 225.376 92.2383 225.969 92.2383C226.724 92.2383 227.375 92.3685 227.922 92.6289C228.475 92.8893 228.928 93.2539 229.279 93.7227C229.631 94.1849 229.891 94.7318 230.061 95.3633C230.23 95.9883 230.314 96.6719 230.314 97.4141V98.2246H222.424V96.75H228.508V96.6133C228.482 96.1445 228.384 95.6888 228.215 95.2461C228.052 94.8034 227.792 94.4388 227.434 94.1523C227.076 93.8659 226.587 93.7227 225.969 93.7227C225.559 93.7227 225.181 93.8105 224.836 93.9863C224.491 94.1556 224.195 94.4095 223.947 94.748C223.7 95.0866 223.508 95.5 223.371 95.9883C223.234 96.4766 223.166 97.0397 223.166 97.6777V98.0879C223.166 98.5892 223.234 99.0612 223.371 99.5039C223.514 99.9401 223.719 100.324 223.986 100.656C224.26 100.988 224.589 101.249 224.973 101.438C225.363 101.626 225.806 101.721 226.301 101.721C226.939 101.721 227.479 101.59 227.922 101.33C228.365 101.07 228.752 100.721 229.084 100.285L230.178 101.154C229.95 101.499 229.66 101.828 229.309 102.141C228.957 102.453 228.524 102.707 228.01 102.902C227.502 103.098 226.9 103.195 226.203 103.195ZM239.084 100.949V88H240.9V103H239.24L239.084 100.949ZM231.975 97.834V97.6289C231.975 96.8216 232.072 96.0892 232.268 95.4316C232.469 94.7676 232.753 94.1979 233.117 93.7227C233.488 93.2474 233.928 92.8828 234.436 92.6289C234.95 92.3685 235.523 92.2383 236.154 92.2383C236.818 92.2383 237.398 92.3555 237.893 92.5898C238.394 92.8177 238.817 93.153 239.162 93.5957C239.514 94.0319 239.79 94.5592 239.992 95.1777C240.194 95.7962 240.334 96.4961 240.412 97.2773V98.1758C240.34 98.9505 240.201 99.6471 239.992 100.266C239.79 100.884 239.514 101.411 239.162 101.848C238.817 102.284 238.394 102.619 237.893 102.854C237.391 103.081 236.805 103.195 236.135 103.195C235.516 103.195 234.95 103.062 234.436 102.795C233.928 102.528 233.488 102.154 233.117 101.672C232.753 101.19 232.469 100.624 232.268 99.9727C232.072 99.3151 231.975 98.6022 231.975 97.834ZM233.791 97.6289V97.834C233.791 98.3613 233.843 98.8561 233.947 99.3184C234.058 99.7806 234.227 100.188 234.455 100.539C234.683 100.891 234.973 101.167 235.324 101.369C235.676 101.564 236.096 101.662 236.584 101.662C237.183 101.662 237.674 101.535 238.059 101.281C238.449 101.027 238.762 100.692 238.996 100.275C239.23 99.8587 239.413 99.4062 239.543 98.918V96.5645C239.465 96.2064 239.351 95.8613 239.201 95.5293C239.058 95.1908 238.869 94.8913 238.635 94.6309C238.407 94.3639 238.124 94.1523 237.785 93.9961C237.453 93.8398 237.059 93.7617 236.604 93.7617C236.109 93.7617 235.682 93.8659 235.324 94.0742C234.973 94.276 234.683 94.556 234.455 94.9141C234.227 95.2656 234.058 95.6758 233.947 96.1445C233.843 96.6068 233.791 97.1016 233.791 97.6289Z" fill="white"/>
<path d="M276.904 88.7812V103H275.049V88.7812H276.904ZM281.475 88.7812V90.3242H270.488V88.7812H281.475ZM285.117 88V103H283.311V88H285.117ZM284.688 97.3164L283.936 97.2871C283.942 96.5645 284.049 95.8971 284.258 95.2852C284.466 94.6667 284.759 94.1296 285.137 93.6738C285.514 93.2181 285.964 92.8665 286.484 92.6191C287.012 92.3652 287.594 92.2383 288.232 92.2383C288.753 92.2383 289.222 92.3099 289.639 92.4531C290.055 92.5898 290.41 92.8112 290.703 93.1172C291.003 93.4232 291.23 93.8203 291.387 94.3086C291.543 94.7904 291.621 95.3796 291.621 96.0762V103H289.805V96.0566C289.805 95.5033 289.723 95.0605 289.561 94.7285C289.398 94.39 289.16 94.1458 288.848 93.9961C288.535 93.8398 288.151 93.7617 287.695 93.7617C287.246 93.7617 286.836 93.8561 286.465 94.0449C286.1 94.2337 285.785 94.4941 285.518 94.8262C285.257 95.1582 285.052 95.5391 284.902 95.9688C284.759 96.3919 284.688 96.8411 284.688 97.3164ZM300.791 100.559V92.4336H302.607V103H300.879L300.791 100.559ZM301.133 98.332L301.885 98.3125C301.885 99.0156 301.81 99.6667 301.66 100.266C301.517 100.858 301.283 101.372 300.957 101.809C300.632 102.245 300.205 102.587 299.678 102.834C299.15 103.075 298.509 103.195 297.754 103.195C297.24 103.195 296.768 103.12 296.338 102.971C295.915 102.821 295.55 102.59 295.244 102.277C294.938 101.965 294.701 101.558 294.531 101.057C294.368 100.555 294.287 99.9531 294.287 99.25V92.4336H296.094V99.2695C296.094 99.7448 296.146 100.139 296.25 100.451C296.361 100.757 296.507 101.001 296.689 101.184C296.878 101.359 297.087 101.483 297.314 101.555C297.549 101.626 297.79 101.662 298.037 101.662C298.805 101.662 299.414 101.516 299.863 101.223C300.312 100.923 300.635 100.523 300.83 100.021C301.032 99.5137 301.133 98.9505 301.133 98.332Z" fill="white"/>
<path d="M334.535 88.7812V103H332.65V88.7812H334.535ZM340.492 95.1777V96.7207H334.125V95.1777H340.492ZM341.459 88.7812V90.3242H334.125V88.7812H341.459ZM344.984 94.0938V103H343.178V92.4336H344.936L344.984 94.0938ZM348.285 92.375L348.275 94.0547C348.126 94.0221 347.982 94.0026 347.846 93.9961C347.715 93.9831 347.566 93.9766 347.396 93.9766C346.98 93.9766 346.612 94.0417 346.293 94.1719C345.974 94.3021 345.704 94.4844 345.482 94.7188C345.261 94.9531 345.085 95.2331 344.955 95.5586C344.831 95.8776 344.75 96.2292 344.711 96.6133L344.203 96.9062C344.203 96.2682 344.265 95.6693 344.389 95.1094C344.519 94.5495 344.717 94.0547 344.984 93.625C345.251 93.1888 345.59 92.8503 346 92.6094C346.417 92.362 346.911 92.2383 347.484 92.2383C347.615 92.2383 347.764 92.2546 347.934 92.2871C348.103 92.3132 348.22 92.3424 348.285 92.375ZM351.918 92.4336V103H350.102V92.4336H351.918ZM349.965 89.6309C349.965 89.3379 350.053 89.0905 350.229 88.8887C350.411 88.6868 350.678 88.5859 351.029 88.5859C351.374 88.5859 351.638 88.6868 351.82 88.8887C352.009 89.0905 352.104 89.3379 352.104 89.6309C352.104 89.9108 352.009 90.1517 351.82 90.3535C351.638 90.5488 351.374 90.6465 351.029 90.6465C350.678 90.6465 350.411 90.5488 350.229 90.3535C350.053 90.1517 349.965 89.9108 349.965 89.6309Z" fill="white"/>
<path d="M390.229 99.4062C390.229 99.0742 390.176 98.7812 390.072 98.5273C389.975 98.2669 389.799 98.0326 389.545 97.8242C389.298 97.6159 388.952 97.4173 388.51 97.2285C388.074 97.0397 387.52 96.8477 386.85 96.6523C386.146 96.444 385.512 96.2129 384.945 95.959C384.379 95.6986 383.894 95.4023 383.49 95.0703C383.087 94.7383 382.777 94.3574 382.562 93.9277C382.348 93.498 382.24 93.0065 382.24 92.4531C382.24 91.8997 382.354 91.3887 382.582 90.9199C382.81 90.4512 383.135 90.0443 383.559 89.6992C383.988 89.3477 384.499 89.0742 385.092 88.8789C385.684 88.6836 386.345 88.5859 387.074 88.5859C388.142 88.5859 389.047 88.791 389.789 89.2012C390.538 89.6048 391.107 90.1354 391.498 90.793C391.889 91.444 392.084 92.1406 392.084 92.8828H390.209C390.209 92.349 390.095 91.877 389.867 91.4668C389.639 91.0501 389.294 90.7246 388.832 90.4902C388.37 90.2493 387.784 90.1289 387.074 90.1289C386.404 90.1289 385.85 90.2298 385.414 90.4316C384.978 90.6335 384.652 90.9069 384.438 91.252C384.229 91.597 384.125 91.9909 384.125 92.4336C384.125 92.7331 384.187 93.0065 384.311 93.2539C384.441 93.4948 384.639 93.7194 384.906 93.9277C385.18 94.1361 385.525 94.3281 385.941 94.5039C386.365 94.6797 386.869 94.849 387.455 95.0117C388.262 95.2396 388.959 95.4935 389.545 95.7734C390.131 96.0534 390.613 96.3691 390.99 96.7207C391.374 97.0658 391.658 97.4596 391.84 97.9023C392.029 98.3385 392.123 98.8333 392.123 99.3867C392.123 99.9661 392.006 100.49 391.771 100.959C391.537 101.428 391.202 101.828 390.766 102.16C390.329 102.492 389.805 102.749 389.193 102.932C388.588 103.107 387.911 103.195 387.162 103.195C386.505 103.195 385.857 103.104 385.219 102.922C384.587 102.74 384.011 102.466 383.49 102.102C382.976 101.737 382.562 101.288 382.25 100.754C381.944 100.214 381.791 99.5885 381.791 98.8789H383.666C383.666 99.3672 383.76 99.7871 383.949 100.139C384.138 100.484 384.395 100.77 384.721 100.998C385.053 101.226 385.427 101.395 385.844 101.506C386.267 101.61 386.706 101.662 387.162 101.662C387.82 101.662 388.376 101.571 388.832 101.389C389.288 101.206 389.633 100.946 389.867 100.607C390.108 100.269 390.229 99.8685 390.229 99.4062ZM400.482 101.193V95.7539C400.482 95.3372 400.398 94.9759 400.229 94.6699C400.066 94.3574 399.818 94.1165 399.486 93.9473C399.154 93.778 398.744 93.6934 398.256 93.6934C397.8 93.6934 397.4 93.7715 397.055 93.9277C396.716 94.084 396.449 94.2891 396.254 94.543C396.065 94.7969 395.971 95.0703 395.971 95.3633H394.164C394.164 94.9857 394.262 94.6113 394.457 94.2402C394.652 93.8691 394.932 93.5339 395.297 93.2344C395.668 92.9284 396.111 92.6875 396.625 92.5117C397.146 92.3294 397.725 92.2383 398.363 92.2383C399.132 92.2383 399.809 92.3685 400.395 92.6289C400.987 92.8893 401.449 93.2832 401.781 93.8105C402.12 94.3314 402.289 94.9857 402.289 95.7734V100.695C402.289 101.047 402.318 101.421 402.377 101.818C402.442 102.215 402.536 102.557 402.66 102.844V103H400.775C400.684 102.792 400.613 102.515 400.561 102.17C400.508 101.818 400.482 101.493 400.482 101.193ZM400.795 96.5938L400.814 97.8633H398.988C398.474 97.8633 398.015 97.9056 397.611 97.9902C397.208 98.0684 396.869 98.1888 396.596 98.3516C396.322 98.5143 396.114 98.7194 395.971 98.9668C395.827 99.2077 395.756 99.4909 395.756 99.8164C395.756 100.148 395.831 100.451 395.98 100.725C396.13 100.998 396.355 101.216 396.654 101.379C396.96 101.535 397.335 101.613 397.777 101.613C398.331 101.613 398.819 101.496 399.242 101.262C399.665 101.027 400.001 100.741 400.248 100.402C400.502 100.064 400.639 99.735 400.658 99.416L401.43 100.285C401.384 100.559 401.26 100.861 401.059 101.193C400.857 101.525 400.587 101.844 400.248 102.15C399.916 102.45 399.519 102.701 399.057 102.902C398.601 103.098 398.087 103.195 397.514 103.195C396.798 103.195 396.169 103.055 395.629 102.775C395.095 102.495 394.678 102.121 394.379 101.652C394.086 101.177 393.939 100.646 393.939 100.061C393.939 99.4941 394.05 98.9961 394.271 98.5664C394.493 98.1302 394.812 97.7689 395.229 97.4824C395.645 97.1895 396.146 96.9681 396.732 96.8184C397.318 96.6686 397.973 96.5938 398.695 96.5938H400.795ZM409.555 92.4336V93.8203H403.842V92.4336H409.555ZM405.775 89.8652H407.582V100.383C407.582 100.741 407.637 101.011 407.748 101.193C407.859 101.376 408.002 101.496 408.178 101.555C408.354 101.613 408.542 101.643 408.744 101.643C408.894 101.643 409.05 101.63 409.213 101.604C409.382 101.571 409.509 101.545 409.594 101.525L409.604 103C409.46 103.046 409.271 103.088 409.037 103.127C408.809 103.173 408.533 103.195 408.207 103.195C407.764 103.195 407.357 103.107 406.986 102.932C406.615 102.756 406.319 102.463 406.098 102.053C405.883 101.636 405.775 101.076 405.775 100.373V89.8652Z" fill="white"/>
<path d="M25.0547 115.602H26.0859C26.5911 115.602 27.0078 115.518 27.3359 115.352C27.6693 115.18 27.9167 114.948 28.0781 114.656C28.2448 114.359 28.3281 114.026 28.3281 113.656C28.3281 113.219 28.2552 112.852 28.1094 112.555C27.9635 112.258 27.7448 112.034 27.4531 111.883C27.1615 111.732 26.7917 111.656 26.3438 111.656C25.9375 111.656 25.5781 111.737 25.2656 111.898C24.9583 112.055 24.7161 112.279 24.5391 112.57C24.3672 112.862 24.2812 113.206 24.2812 113.602H22.8359C22.8359 113.023 22.9818 112.497 23.2734 112.023C23.5651 111.549 23.974 111.172 24.5 110.891C25.0312 110.609 25.6458 110.469 26.3438 110.469C27.0312 110.469 27.6328 110.591 28.1484 110.836C28.6641 111.076 29.0651 111.435 29.3516 111.914C29.638 112.388 29.7812 112.979 29.7812 113.688C29.7812 113.974 29.7135 114.281 29.5781 114.609C29.4479 114.932 29.2422 115.234 28.9609 115.516C28.6849 115.797 28.3255 116.029 27.8828 116.211C27.4401 116.388 26.9089 116.477 26.2891 116.477H25.0547V115.602ZM25.0547 116.789V115.922H26.2891C27.013 115.922 27.612 116.008 28.0859 116.18C28.5599 116.352 28.9323 116.581 29.2031 116.867C29.4792 117.154 29.6719 117.469 29.7812 117.812C29.8958 118.151 29.9531 118.49 29.9531 118.828C29.9531 119.359 29.862 119.831 29.6797 120.242C29.5026 120.654 29.25 121.003 28.9219 121.289C28.599 121.576 28.2188 121.792 27.7812 121.938C27.3438 122.083 26.8672 122.156 26.3516 122.156C25.8568 122.156 25.3906 122.086 24.9531 121.945C24.5208 121.805 24.138 121.602 23.8047 121.336C23.4714 121.065 23.2109 120.734 23.0234 120.344C22.8359 119.948 22.7422 119.497 22.7422 118.992H24.1875C24.1875 119.388 24.2734 119.734 24.4453 120.031C24.6224 120.328 24.8724 120.56 25.1953 120.727C25.5234 120.888 25.9089 120.969 26.3516 120.969C26.7943 120.969 27.1745 120.893 27.4922 120.742C27.8151 120.586 28.0625 120.352 28.2344 120.039C28.4115 119.727 28.5 119.333 28.5 118.859C28.5 118.385 28.401 117.997 28.2031 117.695C28.0052 117.388 27.724 117.161 27.3594 117.016C27 116.865 26.5755 116.789 26.0859 116.789H25.0547ZM36.6953 110.562V122H35.25V112.367L32.3359 113.43V112.125L36.4688 110.562H36.6953Z" fill="white"/>
<path d="M98.6953 110.562V122H97.25V112.367L94.3359 113.43V112.125L98.4688 110.562H98.6953Z" fill="white"/>
<path d="M164.398 120.812V122H156.953V120.961L160.68 116.812C161.138 116.302 161.492 115.87 161.742 115.516C161.997 115.156 162.174 114.836 162.273 114.555C162.378 114.268 162.43 113.977 162.43 113.68C162.43 113.305 162.352 112.966 162.195 112.664C162.044 112.357 161.82 112.112 161.523 111.93C161.227 111.747 160.867 111.656 160.445 111.656C159.94 111.656 159.518 111.755 159.18 111.953C158.846 112.146 158.596 112.417 158.43 112.766C158.263 113.115 158.18 113.516 158.18 113.969H156.734C156.734 113.328 156.875 112.742 157.156 112.211C157.438 111.68 157.854 111.258 158.406 110.945C158.958 110.628 159.638 110.469 160.445 110.469C161.164 110.469 161.779 110.596 162.289 110.852C162.799 111.102 163.19 111.456 163.461 111.914C163.737 112.367 163.875 112.898 163.875 113.508C163.875 113.841 163.818 114.18 163.703 114.523C163.594 114.862 163.44 115.201 163.242 115.539C163.049 115.878 162.823 116.211 162.562 116.539C162.307 116.867 162.034 117.19 161.742 117.508L158.695 120.812H164.398Z" fill="white"/>
<path d="M224.055 115.602H225.086C225.591 115.602 226.008 115.518 226.336 115.352C226.669 115.18 226.917 114.948 227.078 114.656C227.245 114.359 227.328 114.026 227.328 113.656C227.328 113.219 227.255 112.852 227.109 112.555C226.964 112.258 226.745 112.034 226.453 111.883C226.161 111.732 225.792 111.656 225.344 111.656C224.938 111.656 224.578 111.737 224.266 111.898C223.958 112.055 223.716 112.279 223.539 112.57C223.367 112.862 223.281 113.206 223.281 113.602H221.836C221.836 113.023 221.982 112.497 222.273 112.023C222.565 111.549 222.974 111.172 223.5 110.891C224.031 110.609 224.646 110.469 225.344 110.469C226.031 110.469 226.633 110.591 227.148 110.836C227.664 111.076 228.065 111.435 228.352 111.914C228.638 112.388 228.781 112.979 228.781 113.688C228.781 113.974 228.714 114.281 228.578 114.609C228.448 114.932 228.242 115.234 227.961 115.516C227.685 115.797 227.326 116.029 226.883 116.211C226.44 116.388 225.909 116.477 225.289 116.477H224.055V115.602ZM224.055 116.789V115.922H225.289C226.013 115.922 226.612 116.008 227.086 116.18C227.56 116.352 227.932 116.581 228.203 116.867C228.479 117.154 228.672 117.469 228.781 117.812C228.896 118.151 228.953 118.49 228.953 118.828C228.953 119.359 228.862 119.831 228.68 120.242C228.503 120.654 228.25 121.003 227.922 121.289C227.599 121.576 227.219 121.792 226.781 121.938C226.344 122.083 225.867 122.156 225.352 122.156C224.857 122.156 224.391 122.086 223.953 121.945C223.521 121.805 223.138 121.602 222.805 121.336C222.471 121.065 222.211 120.734 222.023 120.344C221.836 119.948 221.742 119.497 221.742 118.992H223.188C223.188 119.388 223.273 119.734 223.445 120.031C223.622 120.328 223.872 120.56 224.195 120.727C224.523 120.888 224.909 120.969 225.352 120.969C225.794 120.969 226.174 120.893 226.492 120.742C226.815 120.586 227.062 120.352 227.234 120.039C227.411 119.727 227.5 119.333 227.5 118.859C227.5 118.385 227.401 117.997 227.203 117.695C227.005 117.388 226.724 117.161 226.359 117.016C226 116.865 225.576 116.789 225.086 116.789H224.055Z" fill="white"/>
<path d="M292.633 118.172V119.359H284.414V118.508L289.508 110.625H290.688L289.422 112.906L286.055 118.172H292.633ZM291.047 110.625V122H289.602V110.625H291.047Z" fill="white"/>
<path d="M340.773 116.586L339.617 116.289L340.188 110.625H346.023V111.961H341.414L341.07 115.055C341.279 114.935 341.542 114.823 341.859 114.719C342.182 114.615 342.552 114.562 342.969 114.562C343.495 114.562 343.966 114.654 344.383 114.836C344.799 115.013 345.154 115.268 345.445 115.602C345.742 115.935 345.969 116.336 346.125 116.805C346.281 117.273 346.359 117.797 346.359 118.375C346.359 118.922 346.284 119.424 346.133 119.883C345.987 120.341 345.766 120.742 345.469 121.086C345.172 121.424 344.797 121.688 344.344 121.875C343.896 122.062 343.367 122.156 342.758 122.156C342.299 122.156 341.865 122.094 341.453 121.969C341.047 121.839 340.682 121.643 340.359 121.383C340.042 121.117 339.781 120.789 339.578 120.398C339.38 120.003 339.255 119.539 339.203 119.008H340.578C340.641 119.435 340.766 119.794 340.953 120.086C341.141 120.378 341.385 120.599 341.688 120.75C341.995 120.896 342.352 120.969 342.758 120.969C343.102 120.969 343.406 120.909 343.672 120.789C343.938 120.669 344.161 120.497 344.344 120.273C344.526 120.049 344.664 119.779 344.758 119.461C344.857 119.143 344.906 118.786 344.906 118.391C344.906 118.031 344.857 117.698 344.758 117.391C344.659 117.083 344.51 116.815 344.312 116.586C344.12 116.357 343.883 116.18 343.602 116.055C343.32 115.924 342.997 115.859 342.633 115.859C342.148 115.859 341.781 115.924 341.531 116.055C341.286 116.185 341.034 116.362 340.773 116.586Z" fill="white"/>
<path d="M399.492 110.609H399.617V111.836H399.492C398.727 111.836 398.086 111.961 397.57 112.211C397.055 112.456 396.646 112.786 396.344 113.203C396.042 113.615 395.823 114.078 395.688 114.594C395.557 115.109 395.492 115.633 395.492 116.164V117.836C395.492 118.341 395.552 118.789 395.672 119.18C395.792 119.565 395.956 119.891 396.164 120.156C396.372 120.422 396.607 120.622 396.867 120.758C397.133 120.893 397.409 120.961 397.695 120.961C398.029 120.961 398.326 120.898 398.586 120.773C398.846 120.643 399.065 120.464 399.242 120.234C399.424 120 399.562 119.724 399.656 119.406C399.75 119.089 399.797 118.74 399.797 118.359C399.797 118.021 399.755 117.695 399.672 117.383C399.589 117.065 399.461 116.784 399.289 116.539C399.117 116.289 398.901 116.094 398.641 115.953C398.385 115.807 398.081 115.734 397.727 115.734C397.326 115.734 396.951 115.833 396.602 116.031C396.258 116.224 395.974 116.479 395.75 116.797C395.531 117.109 395.406 117.451 395.375 117.82L394.609 117.812C394.682 117.229 394.818 116.732 395.016 116.32C395.219 115.904 395.469 115.565 395.766 115.305C396.068 115.039 396.404 114.846 396.773 114.727C397.148 114.602 397.544 114.539 397.961 114.539C398.529 114.539 399.018 114.646 399.43 114.859C399.841 115.073 400.18 115.359 400.445 115.719C400.711 116.073 400.906 116.474 401.031 116.922C401.161 117.365 401.227 117.82 401.227 118.289C401.227 118.826 401.151 119.328 401 119.797C400.849 120.266 400.622 120.677 400.32 121.031C400.023 121.385 399.656 121.661 399.219 121.859C398.781 122.057 398.273 122.156 397.695 122.156C397.081 122.156 396.544 122.031 396.086 121.781C395.628 121.526 395.247 121.188 394.945 120.766C394.643 120.344 394.417 119.875 394.266 119.359C394.115 118.844 394.039 118.32 394.039 117.789V117.109C394.039 116.307 394.12 115.521 394.281 114.75C394.443 113.979 394.721 113.281 395.117 112.656C395.518 112.031 396.073 111.534 396.781 111.164C397.49 110.794 398.393 110.609 399.492 110.609Z" fill="white"/>
<defs>
<linearGradient id="paint0_linear_291_730" x1="527.5" y1="230" x2="304.607" y2="-177.758" gradientUnits="userSpaceOnUse">
<stop stop-color="#2A86CB"/>
<stop offset="0.566339" stop-color="#2A82C5"/>
<stop offset="1" stop-color="#68ADE0"/>
</linearGradient>
</defs>
</svg>
